<svg width="200" height="50" viewBox="0 0 200 50" xmlns="http://www.w3.org/2000/svg">
  <!-- Icon - Stylized car/movement -->
  <g transform="translate(0, 5)">
    <circle cx="20" cy="20" r="20" fill="rgba(255,255,255,0.2)"/>
    <path d="M30 16c-0.6-1.8-2.2-3-4.2-3h-11.6c-2 0-3.5 1.2-4.2 3L7.5 23v9c0 0.8 0.7 1.5 1.5 1.5h1.5c0.8 0 1.5-0.7 1.5-1.5V31h16v1c0 0.8 0.7 1.5 1.5 1.5H31c0.8 0 1.5-0.7 1.5-1.5v-9L30 16zM12.5 28c-1.1 0-2-0.9-2-2s0.9-2 2-2 2 0.9 2 2-0.9 2-2 2zm15 0c-1.1 0-2-0.9-2-2s0.9-2 2-2 2 0.9 2 2-0.9 2-2 2zM10.5 22l2-6h15l2 6h-19z" fill="white"/>
  </g>

  <!-- Text -->
  <text x="50" y="35" font-family="Arial, Helvetica, sans-serif" font-size="32" font-weight="900" fill="white">Drift</text>
</svg>