<svg width="32" height="32" viewBox="0 0 32 32" xmlns="http://www.w3.org/2000/svg">
  <defs>
    <linearGradient id="favGradient" x1="0%" y1="0%" x2="100%" y2="100%">
      <stop offset="0%" style="stop-color:#8B5CF6"/>
      <stop offset="100%" style="stop-color:#7C3AED"/>
    </linearGradient>
  </defs>
  <circle cx="16" cy="16" r="16" fill="url(#favGradient)"/>
  <path d="M24 13c-0.5-1.5-1.8-2.5-3.5-2.5h-9c-1.7 0-3 1-3.5 2.5L6 19v7c0 0.6 0.5 1 1 1h1c0.6 0 1-0.5 1-1v-1h14v1c0 0.6 0.5 1 1 1h1c0.6 0 1-0.5 1-1v-7l-2-6zM11 22c-0.8 0-1.5-0.7-1.5-1.5S10.2 19 11 19s1.5 0.7 1.5 1.5S11.8 22 11 22zm10 0c-0.8 0-1.5-0.7-1.5-1.5S20.2 19 21 19s1.5 0.7 1.5 1.5S21.8 22 21 22zM9 17l1.5-4.5h11L23 17H9z" fill="white"/>
</svg>